<svg width="62" height="62" viewBox="0 0 62 62" fill="none" xmlns="http://www.w3.org/2000/svg">
<path fill-rule="evenodd" clip-rule="evenodd" d="M58.125 0H3.875C1.74375 0 0 1.74375 0 3.875V58.125C0 60.2563 1.74375 62 3.875 62H58.125C60.2563 62 62 60.2563 62 58.125V3.875C62 1.74375 60.2563 0 58.125 0ZM54.25 54.25H53.6688C53.5525 53.9012 53.5138 53.63 53.3588 53.2812C52.0413 50.22 45.57 48.205 41.2687 46.3062C36.9675 44.4075 37.5487 43.245 37.3937 41.6562C37.355 41.4238 37.355 41.1912 37.355 40.9587C38.8275 39.6412 40.0287 37.8587 40.8037 35.805C40.8037 35.805 40.8425 35.6887 40.8425 35.65C40.9975 35.185 41.1525 34.72 41.2687 34.255C42.2375 34.0613 42.8187 32.9762 43.0512 31.9688C43.2837 31.5812 43.7488 30.5737 43.6325 29.45C43.4775 28.0162 42.8962 27.3188 42.2762 27.0475V26.815C42.2762 24.955 42.1212 22.32 41.7725 20.5762C41.695 20.1112 41.5787 19.6075 41.4625 19.1425C40.8425 17.0113 39.4862 15.0737 37.7425 13.7562C35.8825 12.3612 33.325 11.625 31 11.625C28.7138 11.625 26.1175 12.3612 24.2962 13.7562C22.5525 15.1125 21.1962 17.0113 20.5762 19.1425C20.4212 19.6463 20.3438 20.1113 20.2663 20.615C19.9175 22.3588 19.7625 24.9937 19.7625 26.8537V27.0862C19.065 27.3187 18.4838 28.0163 18.3288 29.4888C18.2125 30.6125 18.6775 31.5813 18.91 32.0075C19.1425 33.015 19.7237 34.1 20.7312 34.2938C20.8475 34.7588 21.0025 35.2625 21.1575 35.6888C21.1575 35.7275 21.1962 35.7662 21.1962 35.7662V35.805C22.01 37.8975 23.25 39.7188 24.7612 41.0363C24.7612 41.23 24.7225 41.4625 24.7225 41.6562C24.5675 43.245 25.0325 44.3687 20.7312 46.3062C16.43 48.205 9.9975 50.22 8.64125 53.2812C8.48625 53.63 8.4475 53.9012 8.33125 54.25H7.75V7.75H54.25V54.25Z" fill="white"/>
</svg>
