<svg width="51" height="51" viewBox="0 0 51 51" fill="none" xmlns="http://www.w3.org/2000/svg">
<path fill-rule="evenodd" clip-rule="evenodd" d="M49.5938 42.9688L41.25 34.5938C43.5115 31.0919 44.7158 27.0124 44.7188 22.8438C44.7188 10.75 34.9375 0.96875 22.8438 0.96875C10.75 0.96875 0.96875 10.75 0.96875 22.8438C0.96875 34.9375 10.75 44.7188 22.8438 44.7188C27.1875 44.7188 31.2188 43.4063 34.5938 41.25L42.9688 49.5938C43.8473 50.4723 45.0388 50.9658 46.2812 50.9658C47.5237 50.9658 48.7152 50.4723 49.5938 49.5938C50.4723 48.7152 50.9658 47.5237 50.9658 46.2812C50.9658 45.0388 50.4723 43.8473 49.5938 42.9688V42.9688ZM22.8438 38.4688C14.2188 38.4688 7.21875 31.4687 7.21875 22.8438C7.21875 14.2188 14.2188 7.21875 22.8438 7.21875C31.4687 7.21875 38.4688 14.2188 38.4688 22.8438C38.4688 31.4687 31.4687 38.4688 22.8438 38.4688Z" fill="white"/>
</svg>
