<svg width="50" height="50" viewBox="0 0 50 50" fill="none" xmlns="http://www.w3.org/2000/svg">
<path fill-rule="evenodd" clip-rule="evenodd" d="M3.125 9.375C3.125 7.7174 3.78348 6.12769 4.95558 4.95558C6.12769 3.78348 7.7174 3.125 9.375 3.125H23.7C25.3575 3.12535 26.9469 3.78407 28.1188 4.95625L45.0344 21.8688C45.615 22.4491 46.0756 23.1383 46.3899 23.8967C46.7041 24.6552 46.8659 25.4681 46.8659 26.2891C46.8659 27.11 46.7041 27.923 46.3899 28.6814C46.0756 29.4399 45.615 30.129 45.0344 30.7094L30.7094 45.0312C30.129 45.6119 29.4399 46.0725 28.6814 46.3867C27.923 46.701 27.11 46.8627 26.2891 46.8627C25.4681 46.8627 24.6552 46.701 23.8967 46.3867C23.1383 46.0725 22.4491 45.6119 21.8688 45.0312L4.95625 28.1188C3.78407 26.9469 3.12535 25.3575 3.125 23.7V9.375ZM14.0219 9.35313C12.7836 9.35313 11.5961 9.84501 10.7206 10.7206C9.84501 11.5961 9.35313 12.7836 9.35313 14.0219C9.35313 15.2601 9.84501 16.4476 10.7206 17.3232C11.5961 18.1987 12.7836 18.6906 14.0219 18.6906C15.2601 18.6906 16.4476 18.1987 17.3232 17.3232C18.1987 16.4476 18.6906 15.2601 18.6906 14.0219C18.6906 12.7836 18.1987 11.5961 17.3232 10.7206C16.4476 9.84501 15.2601 9.35313 14.0219 9.35313V9.35313Z" fill="white"/>
</svg>
